<svg width="130" height="40" viewBox="0 0 130 40" fill="none" xmlns="http://www.w3.org/2000/svg">
<path d="M14.6824 14.0752C13.0907 13.3241 11.3573 12.9209 9.59758 12.8921C8.62531 12.8428 7.65977 13.0783 6.81939 13.5697C6.50787 13.7572 6.25298 14.0256 6.08181 14.3464C5.91064 14.6672 5.82959 15.0283 5.84727 15.3915C5.84727 17.5091 9.0703 18.103 11.9091 19.4158C14.1321 20.4315 16.1042 21.8764 16.1042 24.7988C16.1394 25.7931 15.9298 26.7807 15.4937 27.675C15.0577 28.5692 14.4087 29.3427 13.6036 29.9273C11.7818 31.3273 9.19758 31.7939 7.07515 31.7939C4.91627 31.8496 2.76812 31.472 0.757576 30.6836L1.26909 26.9491C3.01671 27.7829 4.9279 28.2177 6.86424 28.2218C8.04637 28.2679 9.21853 27.9891 10.2533 27.4158C10.6332 27.202 10.9458 26.8865 11.1559 26.5046C11.366 26.1227 11.4652 25.6898 11.4424 25.2545C11.4424 23.137 8.21939 22.543 5.46424 21.1867C3.24121 20.1261 1.18545 18.6424 1.18545 15.5915C1.14833 14.7355 1.31295 13.8827 1.66605 13.1019C2.01914 12.3212 2.55082 11.6344 3.21818 11.097C4.70303 9.86909 6.81818 9.23515 9.36364 9.23515C11.4016 9.21361 13.4171 9.66241 15.2533 10.5467L14.6824 14.0752Z" fill="white"/>
<path d="M19.9333 31.1442V10.0073H24.6836V31.1551L19.9333 31.1442ZM19.9333 6.1406V1.38909H24.6836V6.1406H19.9333Z" fill="white"/>
<path d="M57.6497 31.1551V19.7539C57.6497 17.72 57.4776 16.0691 56.7988 14.9636C56.0824 13.697 54.6824 13.1867 52.943 13.1867C51.1401 13.1997 49.3671 13.6492 47.7758 14.497C48.2333 15.7164 48.4482 17.0134 48.4085 18.3152V31.1551H43.6642V19.7539C43.6642 17.72 43.4921 16.0691 42.8133 14.9636C42.0909 13.697 40.7358 13.1867 39.0024 13.1867C37.4347 13.2163 35.8728 13.3871 34.3358 13.697V31.1551H29.5891V10.5127C32.7959 9.73133 36.0793 9.30653 39.3794 9.24606C41.9248 9.24606 44.0024 9.75273 45.5248 11.1079C48.1112 9.84955 50.9555 9.21205 53.8315 9.24606C56.8436 9.24606 59.0497 10.0909 60.4436 11.8303C61.8061 13.3976 62.3952 15.52 62.3952 18.3152V31.1551H57.6497Z" fill="white"/>
<path d="M95.1552 24.543C95.1552 27.2606 96.2158 27.8109 97.6109 27.8109C98.1455 27.8206 98.6776 27.7333 99.183 27.5551L99.9891 31.2436C98.8546 31.6276 97.6631 31.8158 96.4655 31.8C94.0097 31.8 90.4049 30.8218 90.4049 24.7212V1.10666L95.1552 0.384239V24.543Z" fill="white"/>
<path d="M112.624 27.1879C110.872 27.1909 109.191 26.4979 107.95 25.2611C106.709 24.0244 106.01 22.3454 106.007 20.5933C106.004 18.8413 106.697 17.1598 107.933 15.9188C109.17 14.6777 110.849 13.9788 112.601 13.9758C113.469 13.9739 114.328 14.143 115.13 14.4733C115.932 14.8036 116.662 15.2886 117.276 15.9008C117.891 16.5129 118.379 17.2401 118.713 18.0409C119.047 18.8417 119.219 19.7004 119.221 20.5679C119.223 21.4354 119.054 22.2948 118.724 23.097C118.393 23.8992 117.908 24.6284 117.296 25.2431C116.684 25.8579 115.957 26.346 115.156 26.6797C114.355 27.0134 113.497 27.186 112.629 27.1879H112.624ZM116.269 11.3697C116.13 10.8483 116.048 10.3135 116.024 9.77454C114.924 9.43025 113.777 9.25412 112.624 9.25212C110.211 9.24402 107.857 10.0047 105.905 11.424C103.952 12.8433 102.503 14.8474 101.766 17.1459C101.029 19.4444 101.044 21.9177 101.807 24.2075C102.57 26.4974 104.043 28.4846 106.011 29.8813C107.98 31.278 110.342 32.0116 112.755 31.9756C115.169 31.9397 117.508 31.1362 119.434 29.6816C121.36 28.2269 122.773 26.1967 123.468 23.8852C124.162 21.5737 124.103 19.101 123.298 16.8254C121.692 16.8042 120.138 16.2601 118.869 15.2755C117.6 14.291 116.687 12.9198 116.268 11.3697H116.269Z" fill="white"/>
<path d="M124.292 3.75757C124.948 3.74668 125.599 3.86637 126.209 4.10967C126.818 4.35298 127.372 4.71504 127.84 5.17477C128.308 5.6345 128.68 6.18271 128.934 6.7875C129.188 7.39228 129.319 8.04155 129.32 8.6975C129.32 9.35344 129.19 10.003 128.938 10.6082C128.685 11.2135 128.314 11.7625 127.847 12.2231C127.38 12.6838 126.826 13.0469 126.218 13.2914C125.609 13.5359 124.958 13.6569 124.302 13.6473C123.652 13.6479 123.009 13.5206 122.409 13.2727C121.809 13.0247 121.263 12.661 120.803 12.2022C119.875 11.2757 119.353 10.0183 119.352 8.70666C119.35 7.39505 119.87 6.13664 120.797 5.20828C121.723 4.27992 122.981 3.75764 124.292 3.75636V3.75757ZM124.281 6.53454H124.292H124.281ZM124.292 6.53454C123.729 6.55754 123.197 6.7974 122.806 7.20394C122.416 7.61048 122.198 8.1522 122.198 8.71575C122.198 9.27931 122.416 9.82103 122.806 10.2276C123.197 10.6341 123.729 10.874 124.292 10.897C124.48 10.8945 124.668 10.8679 124.848 10.8194C125.125 10.7459 125.383 10.618 125.609 10.4431C125.835 10.2683 126.024 10.05 126.165 9.80121C126.355 9.4711 126.456 9.09679 126.456 8.71568C126.457 8.33457 126.357 7.95999 126.168 7.62936C125.978 7.29872 125.705 7.02361 125.376 6.83149C125.047 6.63938 124.673 6.53698 124.292 6.53454V6.53454Z" fill="#ED135C"/>
<path d="M74.7455 27.9491C73.3806 27.956 72.0385 27.5996 70.857 26.9164V14.2473C72.0388 13.5635 73.3813 13.2066 74.7467 13.2133C75.7381 13.1752 76.727 13.3375 77.6542 13.6906C78.5814 14.0437 79.4278 14.5802 80.1427 15.2682C80.8576 15.9561 81.4264 16.7812 81.8149 17.6942C82.2033 18.6071 82.4036 19.5891 82.4036 20.5812C82.4036 21.5734 82.2033 22.5553 81.8149 23.4682C81.4264 24.3812 80.8576 25.2063 80.1427 25.8943C79.4278 26.5822 78.5814 27.1188 77.6542 27.4718C76.727 27.8249 75.7381 27.9872 74.7467 27.9491H74.7455ZM74.7455 9.20242C71.9502 9.20339 69.2443 10.1868 67.1006 11.9806L66.7503 12.2691V39.9673H70.8788V31.3164C72.1301 31.7476 73.445 31.9656 74.7685 31.9612C81.2303 31.9612 86.4873 26.8545 86.4873 20.5818C86.4873 14.3079 81.2085 9.20242 74.7467 9.20242H74.7455Z" fill="white"/>
</svg>
