<svg width="130" height="40" viewBox="0 0 130 40" fill="none" xmlns="http://www.w3.org/2000/svg">
<g clip-path="url(#clip0_1_2)">
<path d="M14.1619 13.8369C12.5537 13.0772 10.8019 12.6694 9.02358 12.6407C8.04085 12.5902 7.06373 12.8317 6.21577 13.3258C5.90081 13.5154 5.64311 13.7868 5.47006 14.1111C5.29702 14.4354 5.21511 14.8006 5.23304 15.1678C5.23304 17.3073 8.4901 17.9082 11.3597 19.2335C13.6059 20.2611 15.5995 21.7212 15.5995 24.675C15.6345 25.6798 15.4225 26.6778 14.9819 27.5815C14.5413 28.4852 13.8856 29.267 13.0724 29.8582C11.2305 31.2733 8.61926 31.7451 6.47409 31.7451C4.28962 31.8012 2.12199 31.4193 0.0891418 30.6219L0.605778 26.8482C2.37258 27.6895 4.30386 28.1287 6.2607 28.1342C7.45682 28.1791 8.64172 27.8984 9.68622 27.3199C10.0697 27.1035 10.3853 26.7844 10.5976 26.3985C10.8099 26.0127 10.9104 25.5753 10.888 25.1355C10.888 22.9959 7.63091 22.3951 4.84557 21.0248C2.59932 19.9523 0.521544 18.4529 0.521544 15.3699C0.482663 14.5044 0.648524 13.6419 1.00565 12.8525C1.36278 12.0631 1.90109 11.3691 2.57686 10.8269C4.07623 9.58585 6.21577 8.94567 8.78772 8.94567C10.8487 8.92321 12.8871 9.37807 14.7403 10.271L14.1619 13.8369ZM19.4686 5.81777V1.01642H24.27V5.81777H19.4686V5.81777ZM19.4686 31.088V9.72624H24.27V31.0993L19.4686 31.088ZM57.5874 31.0993V19.576C57.5874 17.5207 57.4133 15.8529 56.7282 14.7354C56.0038 13.455 54.5887 12.9384 52.831 12.9384C51.0059 12.9496 49.2145 13.4045 47.6084 14.2637C48.0698 15.496 48.2873 16.8063 48.2486 18.1216V31.0993H43.4529V19.576C43.4529 17.5207 43.2788 15.8529 42.5937 14.7354C41.8637 13.455 40.4935 12.9384 38.7414 12.9384C37.1578 12.9664 35.5798 13.1405 34.0243 13.455V31.0993H29.2286V10.2373C32.4694 9.4467 35.7879 9.0173 39.1233 8.9569C41.6952 8.9569 43.7954 9.46792 45.3341 10.8381C47.9454 9.569 50.8206 8.9232 53.7295 8.9569C56.7731 8.9569 59.0025 9.81047 60.412 11.5682C61.7879 13.1518 62.3831 15.2969 62.3831 18.1216V31.0993H57.5874V31.0993ZM95.4928 24.4167C95.4928 27.1627 96.5654 27.7187 97.9749 27.7187C98.514 27.7299 99.0531 27.64 99.5641 27.4603L100.378 31.1891C99.2321 31.5769 98.0281 31.7668 96.8181 31.7507C94.336 31.7507 90.6914 30.7623 90.6914 24.5964V0.730028L95.4928 -1.90735e-06V24.4167ZM116.832 11.1021C116.692 10.5742 116.607 10.0351 116.585 9.49038C115.473 9.14221 114.316 8.96251 113.148 8.96251C106.808 8.94005 101.647 14.0671 101.625 20.4071C101.603 26.7472 106.73 31.9079 113.07 31.9304C119.41 31.9528 124.57 26.8258 124.593 20.4857C124.598 19.1661 124.374 17.8576 123.936 16.6166C122.313 16.5947 120.742 16.0445 119.46 15.0494C118.178 14.0544 117.256 12.6686 116.832 11.1021V11.1021ZM113.148 27.0897C109.459 27.0953 106.471 24.1078 106.466 20.4184C106.46 16.7289 109.448 13.7414 113.137 13.7358C116.826 13.7302 119.814 16.7177 119.82 20.4071V20.4127C119.814 24.0966 116.838 27.0785 113.154 27.0897H113.148Z" fill="#24014C"/>
<path d="M124.93 6.21648C126.143 6.21648 127.131 7.20483 127.131 8.4178C127.131 8.80528 127.03 9.18152 126.834 9.51846C126.547 10.0239 126.064 10.3945 125.503 10.5461C125.317 10.5967 125.132 10.6247 124.941 10.6247C124.357 10.5952 123.808 10.335 123.415 9.90124C123.022 9.46745 122.818 8.89555 122.846 8.3111C122.903 7.18237 123.807 6.27264 124.941 6.21648H124.93ZM124.941 3.40868C124.503 3.40868 124.065 3.46483 123.638 3.58276C120.976 4.30717 119.398 7.04759 120.123 9.71501C120.847 12.3768 123.588 13.9548 126.255 13.2304C128.917 12.506 130.495 9.76555 129.77 7.09813C129.482 6.03816 128.853 5.10253 127.98 4.4357C127.108 3.76888 126.039 3.40796 124.941 3.40868V3.40868Z" fill="#ED135C"/>
<path d="M74.8666 8.91197C72.042 8.91197 69.3072 9.90594 67.1396 11.7198L66.7858 12.0118V40.0056H70.9582V31.2621C72.2217 31.7001 73.5526 31.9191 74.8891 31.9135C81.4201 31.9135 86.7324 26.7528 86.7324 20.4127C86.7324 14.0727 81.3976 8.91197 74.8666 8.91197V8.91197ZM74.8666 27.859C73.4852 27.8647 72.1318 27.5053 70.9357 26.8145V14.011C72.1318 13.3202 73.4852 12.9608 74.8666 12.9664C78.9773 12.8092 82.4421 16.0101 82.6049 20.1207C82.7622 24.2314 79.5613 27.6962 75.4507 27.859C75.2541 27.8647 75.0576 27.8647 74.8666 27.859Z" fill="#24014C"/>
</g>
<defs>
<clipPath id="clip0_1_2">
<rect width="130" height="40" fill="white"/>
</clipPath>
</defs>
</svg>
