<?xml version="1.0" standalone="no"?>
<!DOCTYPE svg PUBLIC "-//W3C//DTD SVG 20010904//EN"
 "http://www.w3.org/TR/2001/REC-SVG-20010904/DTD/svg10.dtd">
<svg version="1.0" xmlns="http://www.w3.org/2000/svg"
 width="2080.000000pt" height="2080.000000pt" viewBox="0 0 2080.000000 2080.000000"
 preserveAspectRatio="xMidYMid meet">
<metadata>
Created by potrace 1.14, written by Peter Selinger 2001-2017
</metadata>
<g transform="translate(0.000000,2080.000000) scale(0.100000,-0.100000)"
fill="#000000" stroke="none">
<path d="M15239 13596 c-2 -2 -26 -7 -54 -10 -27 -4 -75 -11 -105 -16 -30 -5
-75 -12 -100 -15 -25 -3 -67 -10 -95 -15 -27 -5 -68 -11 -90 -14 -22 -3 -51
-8 -65 -10 -14 -3 -47 -7 -75 -11 -48 -6 -64 -8 -120 -20 l-26 -6 4 -2007 c2
-1104 7 -2029 10 -2057 8 -56 31 -172 41 -210 19 -69 29 -102 35 -110 4 -5 13
-28 20 -50 15 -43 90 -172 125 -213 77 -93 178 -171 281 -217 83 -37 96 -42
130 -51 17 -4 35 -8 40 -10 75 -20 302 -41 390 -35 12 1 82 8 155 16 30 4 73
11 95 16 22 5 54 12 70 14 17 3 57 13 90 23 70 21 69 18 36 162 -11 47 -22 96
-25 110 -2 14 -10 48 -16 75 -7 28 -14 59 -16 70 -2 11 -5 27 -7 35 -2 8 -10
42 -17 75 -8 33 -15 63 -16 68 -1 4 -2 12 -3 17 -1 7 -7 7 -18 1 -29 -15 -128
-32 -200 -35 -290 -10 -418 126 -429 454 -2 58 -4 105 -4 105 -5 0 -2 124 4
133 3 6 2 13 -3 16 -4 3 -5 24 -1 46 4 22 4 43 -1 46 -4 2 -4 16 1 29 5 14 6
25 2 25 -6 0 -7 193 -1 210 1 3 0 10 -1 15 -5 26 -3 81 3 92 4 6 3 14 -2 17
-4 3 -5 24 -1 46 4 22 4 43 -1 46 -4 2 -4 16 1 29 5 14 6 25 2 25 -9 0 -7 135
3 149 3 6 3 11 -2 11 -6 0 -9 191 -2 210 1 3 0 10 -1 15 -5 26 -3 81 3 92 4 6
3 14 -2 17 -4 3 -5 24 -1 46 4 22 4 43 -1 46 -4 2 -4 16 1 29 5 14 6 25 2 25
-6 0 -7 193 -1 210 1 3 0 10 -1 15 -5 26 -3 81 3 92 4 6 3 14 -2 17 -4 3 -5
24 -1 46 4 22 4 43 -1 46 -4 2 -4 16 1 29 5 14 6 25 2 25 -6 0 -7 193 -1 210
1 3 0 10 -1 15 -5 26 -3 81 3 92 4 6 3 14 -2 17 -4 3 -5 24 -1 46 4 22 4 43
-1 46 -4 2 -4 16 1 29 5 14 6 25 2 25 -6 0 -7 193 -1 210 1 3 0 10 -1 15 -5
26 -3 81 3 92 4 6 3 14 -2 17 -4 3 -5 24 -1 46 4 22 4 43 -1 46 -4 2 -4 16 1
29 5 14 6 25 2 25 -6 0 -7 193 -1 210 1 3 0 10 -1 15 -5 26 -3 81 3 92 4 6 3
14 -2 17 -4 3 -5 24 -1 46 4 22 4 43 -1 46 -4 2 -4 16 1 29 5 14 6 25 2 25 -6
0 -7 193 -1 210 1 3 0 10 -1 15 -5 26 -3 81 3 92 4 6 3 14 -2 17 -4 3 -5 24
-1 46 4 22 5 42 1 44 -3 2 -5 29 -5 60 1 47 -2 56 -16 56 -9 0 -19 -2 -21 -4z"/>
<path d="M3119 13436 c-1 -1 -2 -173 -3 -383 l-2 -383 383 0 c299 0 383 3 384
13 4 51 3 740 -1 746 -4 5 -753 12 -761 7z"/>
<path d="M19862 13044 c-264 -45 -488 -218 -600 -463 -14 -31 -27 -60 -28 -66
-34 -118 -40 -162 -38 -267 1 -62 4 -122 7 -133 3 -11 11 -42 17 -70 19 -78
94 -223 157 -302 32 -39 64 -72 71 -72 6 -1 12 -5 12 -9 0 -14 102 -84 179
-123 62 -30 117 -51 171 -64 78 -18 212 -25 275 -14 22 4 56 10 75 14 38 6 64
12 68 15 1 2 5 3 10 5 136 38 295 152 392 280 31 41 107 170 101 170 -2 0 3
14 9 30 7 17 13 37 16 45 2 8 10 42 18 75 15 60 16 255 2 320 -16 73 -77 229
-95 245 -3 3 -13 18 -21 34 -26 52 -173 193 -250 242 -41 26 -77 47 -80 47 -3
0 -16 4 -30 10 -14 6 -27 11 -30 12 -3 1 -12 4 -20 7 -106 39 -267 52 -388 32z
m213 -450 c38 -8 122 -53 149 -80 68 -68 104 -139 113 -227 6 -63 -11 -161
-34 -188 -7 -8 -13 -21 -13 -27 0 -6 -23 -34 -50 -62 -125 -127 -309 -142
-444 -36 -61 48 -68 56 -100 121 -27 54 -45 127 -40 167 9 85 38 178 56 178 5
0 8 5 8 12 0 10 49 60 94 96 21 17 60 32 121 47 48 12 72 12 140 -1z"/>
<path d="M11855 12172 c-2 -2 -32 -6 -67 -7 -35 -2 -63 -5 -63 -5 0 -1 -13 -4
-30 -6 -268 -40 -611 -174 -792 -310 -17 -13 -36 -24 -42 -24 -6 0 -11 -3 -11
-7 0 -5 -16 -19 -35 -32 -19 -13 -45 -32 -57 -43 -13 -11 -34 -29 -48 -40
l-24 -19 -1 -2231 c0 -1226 3 -2234 6 -2239 3 -5 142 -8 334 -7 l329 3 0 693
0 694 25 -5 c14 -3 60 -15 101 -26 41 -12 86 -23 100 -26 14 -2 48 -8 75 -14
150 -29 480 -33 611 -7 12 2 39 7 60 10 96 16 266 63 350 97 16 7 31 13 34 14
60 20 280 134 324 168 6 4 42 31 81 58 82 60 158 124 223 188 68 69 122 131
122 142 0 5 4 9 8 9 8 0 62 70 99 126 7 11 23 35 36 55 14 20 26 40 28 45 2 5
24 47 49 94 24 47 44 87 45 90 1 3 9 22 18 44 9 21 17 44 17 50 0 7 4 16 9 22
8 7 26 66 46 144 2 8 4 15 5 15 1 0 3 7 5 15 12 57 17 79 21 105 3 17 7 41 10
55 18 99 24 363 11 468 -23 174 -50 288 -101 425 -98 261 -229 462 -435 667
-82 82 -289 250 -307 250 -3 0 -19 9 -34 20 -39 28 -221 120 -237 120 -7 0
-13 5 -13 10 0 6 -10 10 -23 10 -13 0 -27 4 -32 8 -20 18 -213 78 -278 88 -16
2 -32 6 -36 8 -4 3 -30 8 -57 12 -27 3 -58 8 -69 11 -52 11 -381 23 -390 15z
m333 -656 c19 -5 43 -9 55 -11 24 -3 73 -15 152 -38 47 -13 196 -81 240 -109
201 -128 342 -279 448 -478 35 -66 84 -189 92 -230 1 -3 4 -18 8 -35 25 -104
31 -158 31 -270 0 -97 -7 -183 -19 -235 -3 -14 -7 -36 -10 -50 -2 -14 -14 -52
-25 -85 -11 -33 -22 -65 -23 -72 -2 -7 -6 -16 -10 -19 -4 -4 -7 -16 -7 -26 0
-10 -4 -18 -10 -18 -5 0 -10 -7 -10 -15 0 -9 -11 -33 -25 -55 -14 -22 -25 -44
-25 -50 0 -5 -4 -10 -10 -10 -5 0 -10 -5 -10 -10 0 -10 -22 -43 -65 -99 -75
-99 -313 -301 -353 -301 -6 0 -12 -3 -14 -7 -3 -7 -122 -67 -137 -69 -3 0 -18
-6 -32 -12 -23 -9 -104 -33 -119 -35 -3 0 -21 -4 -40 -9 -93 -22 -335 -31
-455 -16 -124 16 -272 61 -385 117 l-75 37 -3 1027 -2 1027 80 39 c73 36 133
60 152 61 4 1 27 7 50 16 23 8 55 17 72 20 17 2 38 7 46 9 8 2 40 7 70 10 30
3 55 7 57 9 6 5 281 -2 311 -8z"/>
<path d="M1227 12164 c-1 -2 -30 -5 -63 -9 -32 -3 -69 -7 -81 -9 -12 -3 -43
-8 -70 -12 -26 -4 -65 -13 -85 -20 -21 -7 -38 -11 -38 -9 0 8 -175 -57 -250
-93 -169 -82 -317 -206 -410 -345 -28 -43 -53 -84 -54 -90 -1 -7 -12 -32 -24
-57 -19 -41 -42 -113 -48 -150 -2 -8 -7 -38 -12 -67 -13 -75 -6 -276 12 -361
33 -152 112 -296 227 -411 54 -55 203 -171 219 -171 5 0 15 -6 22 -12 24 -22
214 -121 256 -133 12 -3 22 -11 22 -16 0 -5 6 -9 14 -9 7 0 40 -12 72 -27 33
-15 61 -28 64 -29 3 0 14 -4 25 -9 11 -4 47 -19 80 -32 33 -13 70 -28 83 -33
12 -6 32 -14 45 -19 12 -6 67 -31 122 -57 55 -26 102 -48 105 -48 11 -2 85
-51 88 -58 2 -4 8 -8 14 -8 10 0 18 -6 84 -71 65 -63 90 -121 95 -220 2 -27 0
-51 -3 -55 -4 -3 -4 -12 -2 -18 11 -30 -48 -154 -101 -211 -59 -64 -244 -151
-359 -169 -21 -4 -41 -8 -45 -10 -14 -8 -121 -17 -201 -16 -175 1 -319 15
-460 45 -14 3 -34 7 -45 9 -11 2 -32 9 -46 14 -15 6 -29 8 -32 6 -3 -3 -13 -1
-24 4 -10 5 -56 22 -103 37 -47 16 -114 41 -148 57 -72 32 -78 33 -79 16 0 -7
-3 -33 -7 -58 -3 -25 -9 -65 -11 -90 -3 -25 -8 -56 -10 -70 -3 -14 -7 -45 -10
-70 -5 -45 -14 -107 -21 -145 -2 -11 -6 -46 -9 -79 -4 -33 -8 -63 -11 -67 -6
-11 241 -95 336 -114 8 -2 16 -4 18 -5 3 -3 10 -5 67 -15 28 -4 55 -9 60 -11
106 -27 307 -42 535 -39 230 3 272 6 376 26 28 5 64 12 80 15 16 3 47 10 69
15 22 5 49 12 59 14 96 22 328 119 363 152 7 6 22 15 33 18 11 3 20 10 20 14
0 4 11 13 24 19 61 28 220 187 280 280 57 89 114 216 130 287 1 6 8 37 16 70
13 60 18 316 7 365 -14 60 -36 138 -49 170 -76 197 -272 382 -549 518 -93 46
-356 159 -384 166 -16 3 -179 67 -190 74 -5 4 -15 7 -21 8 -25 4 -242 118
-276 144 -20 17 -40 30 -43 30 -8 0 -75 73 -75 82 0 4 -7 14 -16 22 -9 9 -17
22 -18 29 -2 6 -6 19 -9 27 -13 33 -24 86 -21 104 2 11 4 36 5 55 2 20 7 42
12 49 5 6 7 12 3 12 -13 0 37 84 72 122 52 56 192 127 282 143 19 3 51 10 71
14 36 8 298 6 354 -3 50 -7 158 -26 190 -32 17 -3 50 -11 75 -18 25 -7 47 -14
50 -14 15 -1 66 -16 75 -21 6 -3 15 -6 21 -7 6 -1 51 -18 100 -39 127 -52 124
-51 125 -24 0 13 2 31 4 39 2 8 6 33 10 55 9 58 14 87 19 110 2 11 7 40 10 65
3 25 8 56 11 70 3 14 7 41 10 60 3 19 9 58 14 85 14 69 26 62 -244 165 -47 18
-127 39 -235 64 -25 6 -152 26 -205 32 -51 6 -432 13 -438 8z"/>
<path d="M6055 12162 c-2 -2 -38 -5 -82 -7 -101 -5 -241 -15 -273 -20 -14 -2
-59 -7 -100 -10 -41 -4 -84 -9 -95 -11 -11 -2 -44 -6 -73 -9 -30 -3 -57 -7
-60 -9 -4 -2 -32 -7 -62 -10 -30 -3 -82 -11 -115 -17 -33 -7 -69 -13 -80 -14
-40 -6 -187 -35 -260 -52 -11 -2 -31 -6 -45 -9 -14 -3 -43 -10 -65 -16 -22 -6
-47 -11 -55 -13 -12 -1 -14 -217 -15 -1668 0 -917 2 -1668 5 -1668 3 -1 175
-2 382 -3 332 -2 377 0 380 14 2 8 3 643 3 1412 l0 1396 40 8 c22 4 42 8 45 9
3 0 32 5 65 9 32 4 68 10 79 12 37 7 146 20 246 30 123 12 406 12 470 -1 195
-38 326 -119 414 -257 31 -50 59 -107 57 -116 -1 -1 5 -15 12 -30 13 -24 25
-69 43 -152 9 -46 24 -149 24 -172 0 -13 2 -52 5 -88 4 -36 7 -517 8 -1070 l2
-1005 382 0 381 -1 1 91 c2 113 2 92 1 250 -1 74 2 139 5 145 3 5 3 10 -2 10
-7 0 -8 59 -3 160 1 14 1 79 0 145 0 66 0 125 1 130 1 6 0 15 -1 20 -1 6 -1
51 0 100 1 114 1 92 0 250 -1 74 2 139 5 145 3 5 3 10 -2 10 -7 0 -8 59 -3
160 1 14 1 79 0 145 0 66 0 125 1 130 1 6 0 15 -1 20 -1 6 -1 62 0 125 2 138
2 118 -4 213 -8 119 -49 314 -85 401 -13 33 -8 56 12 56 8 0 20 7 27 15 7 9
15 13 17 11 3 -2 26 6 51 19 50 24 208 82 245 89 12 2 49 11 82 19 72 19 126
28 181 32 23 1 46 5 50 7 12 7 311 2 354 -6 19 -4 64 -16 99 -27 171 -54 265
-130 345 -281 28 -52 72 -173 68 -185 0 -2 4 -17 9 -35 13 -46 25 -134 35
-263 3 -44 7 -534 8 -1090 l1 -1010 383 0 382 -1 0 35 c4 249 -1 2152 -5 2226
-4 78 -32 273 -49 340 -2 6 -6 24 -10 40 -76 299 -294 595 -536 726 -25 13
-47 26 -50 29 -3 3 -32 16 -65 28 -33 13 -69 28 -80 32 -17 8 -90 29 -120 35
-5 2 -37 8 -69 15 -70 14 -91 18 -171 26 -74 8 -439 8 -515 0 -174 -17 -201
-21 -300 -41 -14 -2 -39 -7 -56 -10 -102 -16 -485 -134 -509 -156 -5 -5 -15
-9 -21 -9 -7 0 -47 -16 -88 -35 -87 -40 -89 -40 -106 -20 -18 22 -135 98 -207
134 -76 39 -154 67 -255 92 -118 28 -153 35 -263 45 -58 6 -445 11 -450 6z"/>
<path d="M17967 12164 c-1 -1 -27 -4 -57 -8 -106 -12 -146 -18 -225 -36 -90
-21 -263 -78 -312 -104 -18 -9 -33 -13 -33 -9 0 5 -4 4 -8 -2 -4 -5 -32 -22
-62 -37 -87 -44 -240 -136 -260 -158 -3 -3 -25 -21 -50 -40 -73 -57 -79 -61
-167 -150 -214 -214 -403 -538 -468 -806 -49 -200 -59 -276 -59 -474 -1 -169
7 -272 29 -366 8 -34 16 -73 19 -85 31 -148 142 -414 217 -521 11 -14 19 -31
19 -36 0 -6 4 -12 8 -14 4 -1 23 -25 42 -53 85 -123 260 -306 375 -390 22 -17
42 -32 45 -35 9 -9 113 -76 165 -106 91 -54 305 -150 305 -137 0 3 6 1 13 -4
6 -6 26 -14 42 -18 17 -5 35 -9 40 -11 95 -26 145 -37 220 -49 11 -2 40 -7 65
-11 57 -9 400 -9 460 1 38 5 124 22 219 41 13 3 32 9 43 15 10 5 18 7 18 5 0
-8 177 58 264 98 89 41 236 126 291 169 130 100 200 162 264 231 20 22 43 47
51 56 202 220 382 591 426 880 3 25 8 56 10 70 23 142 22 431 -2 524 -3 13 -7
36 -8 52 -3 32 -7 50 -38 169 -31 122 -34 126 -104 131 -118 8 -185 21 -299
59 -104 35 -256 111 -295 147 -10 10 -23 18 -28 18 -15 0 -188 168 -232 226
-25 33 -47 61 -50 64 -6 6 -21 32 -70 120 -35 63 -86 191 -95 238 -2 13 -7 33
-11 45 -4 12 -9 29 -10 37 -4 27 -15 118 -17 149 -2 33 -7 36 -107 61 -49 13
-60 15 -111 24 -19 3 -44 8 -56 10 -64 13 -404 29 -416 20z m248 -769 c66 -5
207 -35 250 -54 196 -85 297 -152 413 -274 57 -59 132 -158 132 -174 0 -6 4
-13 8 -15 8 -3 82 -148 82 -160 0 -4 5 -19 12 -35 6 -15 12 -32 13 -38 2 -5 7
-28 13 -50 21 -79 27 -132 27 -255 -1 -136 -6 -187 -29 -267 -8 -29 -13 -53
-11 -53 8 0 -77 -186 -111 -241 -33 -56 -114 -159 -154 -199 -68 -67 -216
-173 -290 -207 -91 -43 -187 -74 -275 -89 -70 -12 -95 -14 -195 -14 -120 -1
-132 1 -288 35 -66 15 -276 112 -292 135 -3 4 -10 9 -16 11 -42 15 -199 165
-260 249 -93 127 -169 300 -189 430 -2 14 -7 41 -10 60 -13 72 -8 265 8 340 2
8 8 33 12 55 12 55 12 54 15 60 1 3 3 8 5 13 3 12 16 46 27 72 6 14 12 31 14
37 4 24 73 139 120 203 146 199 407 369 623 405 19 3 37 8 41 10 4 2 42 7 86
11 43 4 80 7 81 8 1 1 17 1 35 -1 18 -1 65 -5 103 -8z"/>
<path d="M3122 12035 c-8 -12 -10 -3404 -2 -3406 3 -1 173 -2 378 -3 239 -1
376 2 380 9 11 17 8 3396 -3 3403 -17 11 -746 8 -753 -3z"/>
</g>
</svg>
